<svg width="90" height="42" viewBox="0 0 90 42" fill="none" xmlns="http://www.w3.org/2000/svg">
<path fill-rule="evenodd" clip-rule="evenodd" d="M2.4111 41.1179C2.13496 41.1179 1.9111 40.894 1.9111 40.6179V22.5549C1.04849 22.3329 0.411102 21.5498 0.411102 20.6179C0.411102 19.686 1.04849 18.9029 1.9111 18.6809V0.617905C1.9111 0.341766 2.13496 0.117905 2.4111 0.117905C2.68724 0.117905 2.9111 0.341766 2.9111 0.617905V18.6809C3.77371 18.9029 4.4111 19.686 4.4111 20.6179C4.4111 21.5498 3.77371 22.3329 2.9111 22.5549V40.6179C2.9111 40.894 2.68724 41.1179 2.4111 41.1179ZM9.59512 7.4899V6.0499H18.1231V7.4899H14.6511V17.6179H13.0831V7.4899H9.59512ZM20.9475 17.6019H19.4435V5.8419H20.9475V10.9939C21.4435 10.1459 22.3875 9.5699 23.6035 9.5699C25.6035 9.5699 26.5635 10.8339 26.5635 12.8339V17.6179H25.0595V13.1699C25.0595 11.5859 24.3075 10.9459 23.1875 10.9459C21.7315 10.9459 20.9475 12.0019 20.9475 13.3459V17.6019ZM32.0226 17.8099C29.7186 17.8099 28.1346 16.1459 28.1346 13.7139C28.1346 11.2659 29.6866 9.5699 31.9586 9.5699C34.1826 9.5699 35.6386 11.1059 35.6386 13.4259V13.9859L29.5906 14.0019C29.7026 15.6499 30.5666 16.5619 32.0546 16.5619C33.2226 16.5619 33.9906 16.0819 34.2466 15.1859H35.6546C35.2706 16.8659 33.9586 17.8099 32.0226 17.8099ZM31.9586 10.8339C30.6466 10.8339 29.8146 11.6179 29.6226 12.9939H34.1346C34.1346 11.6979 33.2866 10.8339 31.9586 10.8339ZM17.7711 34.6179H10.7151V23.0499H17.7711V24.4899H12.2831V28.1059H17.2271V29.4979H12.2831V33.1619H17.7711V34.6179ZM19.2752 30.6499C19.2752 28.2499 20.6833 26.5699 22.9232 26.5699C24.1552 26.5699 25.2273 27.1299 25.7393 28.2019L25.8672 26.7939H27.2112V38.1219H25.7232V33.3379C25.1953 34.2979 24.1552 34.8259 22.9073 34.8259C20.6032 34.8259 19.2752 33.0339 19.2752 30.6499ZM20.7953 30.7139C20.7953 32.3139 21.6913 33.4659 23.2273 33.4659C24.7632 33.4659 25.7072 32.3139 25.7072 30.7139C25.7072 29.0819 24.7632 27.9459 23.2273 27.9459C21.6913 27.9459 20.7953 29.0979 20.7953 30.7139ZM34.789 26.7939H36.277V34.6179H34.933L34.773 33.4339C34.325 34.2499 33.285 34.8099 32.133 34.8099C30.309 34.8099 29.285 33.5779 29.285 31.6579V26.7939H30.789V31.1619C30.789 32.8419 31.509 33.4819 32.661 33.4819C34.037 33.4819 34.789 32.6019 34.789 30.9219V26.7939ZM39.1951 24.9379C38.6511 24.9379 38.2031 24.4899 38.2031 23.9459C38.2031 23.3859 38.6511 22.9539 39.1951 22.9539C39.7391 22.9539 40.1871 23.3859 40.1871 23.9459C40.1871 24.4899 39.7391 24.9379 39.1951 24.9379ZM38.4591 34.6179V26.7939H39.9631V34.6179H38.4591ZM45.2826 34.8099C43.0106 34.8099 41.6346 33.1139 41.6346 30.7299C41.6346 28.3299 43.0266 26.5699 45.3466 26.5699C46.5466 26.5699 47.5546 27.0979 48.0826 28.0579V22.8419H49.5706V34.6179H48.2266L48.0986 33.1939C47.5866 34.2659 46.5306 34.8099 45.2826 34.8099ZM45.5866 33.4499C47.1226 33.4499 48.0666 32.3139 48.0666 30.6819C48.0666 29.0819 47.1226 27.9299 45.5866 27.9299C44.0506 27.9299 43.1546 29.0819 43.1546 30.6819C43.1546 32.2979 44.0506 33.4499 45.5866 33.4499ZM52.4764 24.9379C51.9324 24.9379 51.4844 24.4899 51.4844 23.9459C51.4844 23.3859 51.9324 22.9539 52.4764 22.9539C53.0204 22.9539 53.4684 23.3859 53.4684 23.9459C53.4684 24.4899 53.0204 24.9379 52.4764 24.9379ZM51.7404 34.6179V26.7939H53.2444V34.6179H51.7404ZM54.7879 32.3459H56.2279C56.2279 33.1459 56.8359 33.6259 57.8279 33.6259C58.8839 33.6259 59.4919 33.1939 59.4919 32.4739C59.4919 31.9459 59.2359 31.6259 58.4199 31.4179L57.0439 31.0979C55.6519 30.7619 54.9959 30.0739 54.9959 28.9219C54.9959 27.4819 56.2119 26.5699 57.9399 26.5699C59.6519 26.5699 60.7719 27.5299 60.8039 29.0179H59.3639C59.3319 28.2339 58.8039 27.7379 57.8919 27.7379C56.9479 27.7379 56.4199 28.1539 56.4199 28.8739C56.4199 29.4019 56.8039 29.7539 57.5719 29.9459L58.9479 30.2819C60.2759 30.6019 60.9319 31.2099 60.9319 32.3779C60.9319 33.8659 59.6519 34.8099 57.7959 34.8099C55.9559 34.8099 54.7879 33.8339 54.7879 32.3459ZM64.8077 34.6179H63.3037V28.0579H61.7678V26.7939H63.3037V24.3459H64.8077V26.7939H66.3438V28.0579H64.8077V34.6179ZM69.8878 34.8099C68.2078 34.8099 67.2158 33.8659 67.2158 32.4419C67.2158 31.0019 68.2878 30.1059 70.1277 29.9619L72.5917 29.7699V29.5459C72.5917 28.2339 71.8077 27.7699 70.7517 27.7699C69.4878 27.7699 68.7678 28.3299 68.7678 29.2739H67.4557C67.4557 27.6419 68.7997 26.5699 70.8157 26.5699C72.7517 26.5699 74.0638 27.5939 74.0638 29.7059V34.6179H72.7838L72.6237 33.3539C72.2238 34.2499 71.1518 34.8099 69.8878 34.8099ZM70.3198 33.6419C71.7437 33.6419 72.6078 32.7139 72.6078 31.2419V30.8259L70.6078 30.9859C69.2798 31.1139 68.7357 31.6259 68.7357 32.3939C68.7357 33.2259 69.3438 33.6419 70.3198 33.6419ZM77.6506 34.6179H76.1466V26.7939H77.5066L77.6666 27.9939C78.1626 27.0979 79.1546 26.5699 80.2586 26.5699C82.3226 26.5699 83.2666 27.8339 83.2666 29.8339V34.6179H81.7626V30.1699C81.7626 28.5859 81.0266 27.9459 79.8746 27.9459C78.4666 27.9459 77.6506 28.9539 77.6506 30.4739V34.6179ZM87.5577 34.6179H86.0537V28.0579H84.5178V26.7939H86.0537V24.3459H87.5577V26.7939H89.0938V28.0579H87.5577V34.6179Z" fill="black"/>
</svg>
